P2
4 6
255
0 0 0 0 0 0 
0 0 0 0 0 0 
0 0 250 0 0 0 
0 0 0 0 0 0 
